<?xml version="1.0" encoding="utf-8"?>
<!-- Generator: Adobe Illustrator 25.4.1, SVG Export Plug-In . SVG Version: 6.00 Build 0)  -->
<svg version="1.1" id="Layer_1" xmlns="http://www.w3.org/2000/svg" xmlns:xlink="http://www.w3.org/1999/xlink" x="0px" y="0px"
	 width="82px" height="60px" viewBox="0 0 82 60" enable-background="new 0 0 82 60" xml:space="preserve">
<desc>Created with Sketch.</desc>
<g>
	<polyline fill="none" stroke="#0B1942" stroke-width="2" stroke-linejoin="round" points="64.6,57.5 74.4,57.5 74.4,52.6 
		74.4,42.8 74.4,39.9 77.4,39.9 62.6,28.1 51,37.9 	"/>
	
		<polygon fill="none" stroke="#0B1942" stroke-width="2" stroke-linecap="round" stroke-linejoin="round" stroke-miterlimit="10" points="
		24.5,1.1 7.6,15.1 21.2,15.1 	"/>
	
		<polygon fill="none" stroke="#0B1942" stroke-width="2" stroke-linecap="round" stroke-linejoin="round" stroke-miterlimit="10" points="
		24.5,1.1 51,15.1 27.9,15.1 	"/>
	
		<polygon fill="none" stroke="#0B1942" stroke-width="2" stroke-linecap="round" stroke-linejoin="round" stroke-miterlimit="10" points="
		45.5,33.9 51.5,39.2 39.5,39.2 	"/>
	
		<rect x="4.6" y="15.1" fill="none" stroke="#0B1942" stroke-width="2" stroke-linecap="round" stroke-linejoin="round" stroke-miterlimit="10" width="7.5" height="8.8"/>
	
		<rect x="12.2" y="15.1" fill="none" stroke="#0B1942" stroke-width="2" stroke-linecap="round" stroke-linejoin="round" stroke-miterlimit="10" width="6.7" height="5.5"/>
	
		<polyline fill="none" stroke="#0B1942" stroke-width="2" stroke-linecap="round" stroke-linejoin="round" stroke-miterlimit="10" points="
		51.6,39.2 51.6,42 39.5,42 39.5,39.2 	"/>
	
		<line fill="none" stroke="#0B1942" stroke-width="2" stroke-linecap="round" stroke-linejoin="round" stroke-miterlimit="10" x1="20.9" y1="58.9" x2="20.9" y2="27.3"/>
	
		<line fill="none" stroke="#0B1942" stroke-width="2" stroke-linecap="round" stroke-linejoin="round" stroke-miterlimit="10" x1="28.1" y1="27.3" x2="28.1" y2="58.9"/>
	
		<line fill="none" stroke="#0B1942" stroke-width="2" stroke-linecap="round" stroke-linejoin="round" stroke-miterlimit="10" x1="45.5" y1="20.6" x2="45.5" y2="33.8"/>
	
		<line fill="none" stroke="#0B1942" stroke-width="2" stroke-linecap="round" stroke-linejoin="round" stroke-miterlimit="10" x1="33.2" y1="58.9" x2="15.7" y2="58.9"/>
	
		<line fill="none" stroke="#0B1942" stroke-width="2" stroke-linecap="round" stroke-linejoin="round" stroke-miterlimit="10" x1="65.4" y1="38.2" x2="59.8" y2="38.2"/>
	<path fill="none" stroke="#0B1942" stroke-width="2" stroke-linecap="round" stroke-linejoin="round" stroke-miterlimit="10" d="
		M28.5,15.1h24.3c3,0,5.5,2.4,5.5,5.5v0.1H32.5"/>
	<path fill="none" stroke="#0B1942" stroke-width="2" stroke-linecap="round" stroke-linejoin="round" stroke-miterlimit="10" d="
		M32.3,26.9H18.8V15.1h7.1c3.6,0,6.5,2.9,6.5,6.5L32.3,26.9L32.3,26.9z"/>
</g>
</svg>
