<svg id="Layer_1" data-name="Layer 1" xmlns="http://www.w3.org/2000/svg" viewBox="0 0 802.39 176.66"><defs><style>.cls-1{fill:#cc9932;}.cls-2{fill:#cba134;}</style></defs><path class="cls-1" d="M362.81,310.92v1.71H362c-2.22,0-3.93,1.37-5.41,3.7-4.33,6.84-8.84,14.6-9.75,16.31v12c0,1.76,1.54,3.13,3.65,3.13h2.39v1.71H337V347.8h2a3.3,3.3,0,0,0,3.54-3.13V333.38c0-1.83-6.33-12.14-8.32-15.34-1.09-1.76-3.6-5.58-6-5.58a3.78,3.78,0,0,0-1.6.34s1.37-2.68,3.65-2.68,3.54.4,6,4.22c2.79,4.5,4.79,7.92,8.78,15.05,1.65-3,6.95-12.26,7.47-13.4a3.06,3.06,0,0,0,.39-1.48c0-1.14-.91-1.88-2.56-1.88h-1.08v-1.71Z" transform="translate(-126.43 -219.43)"/><path class="cls-1" d="M397.58,347.8v1.71H385.27V347.8h1.36a1.62,1.62,0,0,0,1.72-1.54,3.43,3.43,0,0,0-.23-1.25c-.74-2.11-2.45-7.07-2.91-8.27H369.65c-1.31,2.74-3.08,6.9-3.08,8.95s.57,3.37,1.42,3.42c0,.29-1,1.37-3.3,1.37-2.68,0-3-2.68-3-3.71,0-2.39,1.66-5.58,3.14-8.49,5.36-10.6,10.15-20.46,10.15-23.6,0-2.51-1.66-2.79-2.11-2.85,0-.57,1-1.71,3.13-1.71,3.59,0,5.08,3,6.22,6.21.79,2.28,10.2,28.16,10.2,28.16a4.67,4.67,0,0,0,3.71,3.31Zm-13.45-14.31c-2-5.3-3.88-10.89-5.82-16.19-1,2.28-2.73,7.36-7.18,16.19Z" transform="translate(-126.43 -219.43)"/><path class="cls-1" d="M399.17,319.81c0-4.39,4.22-9.69,12-9.69s11.69,3.76,11.69,7.64c0,3.53-2.23,4.45-3.77,4.45,0-7.07-3.19-9.47-7.92-9.47-4.39,0-7.87,3-7.87,6.84,0,9.86,20.87,8.33,20.87,20.7,0,5.24-5.08,10.14-13.74,10.14-8.84,0-12.71-4.67-12.71-7.86a3.92,3.92,0,0,1,3.08-4.11s.79,9.07,10.26,9.07c7.63,0,9-5,9-6.79s-.23-4.79-9.47-8.66C400.31,327.73,399.17,323.8,399.17,319.81Z" transform="translate(-126.43 -219.43)"/><path class="cls-1" d="M431.09,319.81c0-4.39,4.22-9.69,12-9.69s11.69,3.76,11.69,7.64c0,3.53-2.23,4.45-3.77,4.45,0-7.07-3.19-9.47-7.92-9.47-4.39,0-7.87,3-7.87,6.84,0,9.86,20.87,8.33,20.87,20.7,0,5.24-5.08,10.14-13.74,10.14-8.84,0-12.71-4.67-12.71-7.86a3.92,3.92,0,0,1,3.07-4.11s.8,9.07,10.26,9.07c7.64,0,9-5,9-6.79s-.23-4.79-9.47-8.66C432.23,327.73,431.09,323.8,431.09,319.81Z" transform="translate(-126.43 -219.43)"/><path class="cls-1" d="M470,344.67a3,3,0,0,0,2.74,3.13h1.6v1.71H461.41V347.8H463c1.82,0,2.79-1.37,2.79-3.13V315a2.49,2.49,0,0,0-2.79-2.45h-1.65v-1.65H474.3v1.65h-1.88A2.44,2.44,0,0,0,470,315Z" transform="translate(-126.43 -219.43)"/><path class="cls-1" d="M509.07,316c0,2.11-1.48,4.45-3.37,4.45,0-5.13-1.82-7.36-8.26-7.36-3.71,0-8.84.35-8.84,2.8v12h9.75c2.85,0,3.31,1.31,3.31,2.17,0,1.65-2.06,3.3-3.65,3.3,0-1.54-1.08-2.56-3.65-2.56H488.6v14.08c0,2.05,5.53,2.11,9.52,2.11,7.47,0,9.41-5.65,9.41-6.62a3.32,3.32,0,0,1,3.08,3.31c0,4.9-5.7,5.87-11.23,5.87h-19.5v-2.05h1.88a2.58,2.58,0,0,0,2.74-2.57V315.25a2.46,2.46,0,0,0-2.74-2.68H480v-1.65h8.1c2.79,0,10.89-.34,13.79-.34C507.81,310.58,509,312.06,509.07,316Z" transform="translate(-126.43 -219.43)"/><path class="cls-1" d="M519.55,315.93c0-1.48-.62-3.36-3.7-3.36h-1v-1.65h4.85c4.33,0,5.7,1.94,7.58,4.67l18,26.57V315.93c0-2-.86-3.36-2.63-3.36h-2v-1.65H553.3v1.65h-1.59a2.65,2.65,0,0,0-2.8,2.85v28.9c0,3,1.88,4.45,2.4,4.45-1,1.14-2.57,1.14-3.6,1.14a4.1,4.1,0,0,1-3.19-1.77c-1.48-1.94-21.2-30.55-21.2-30.55v26.56c0,1.43.62,3.65,3.42,3.65h1.76v1.71H515.05V347.8h1.42a3,3,0,0,0,3.08-3.25Z" transform="translate(-126.43 -219.43)"/><path class="cls-1" d="M593,349.91c-8.78,0-16.82-4.67-16.82-12.71a9.52,9.52,0,0,1,8.55-9.69c-4.79-2.17-6.32-4.74-6.32-8.33s2.33-8.66,11-8.66c7.59,0,10.38,3.3,10.38,7.07a3.71,3.71,0,0,1-3.42,3.65c0-6.39-3.82-8-7-8-3.47,0-6.67,2.39-6.67,5.92,0,6.84,9.87,5.82,9.87,9.75a3.82,3.82,0,0,1-1,2.51c-.4-.51-1.26-1.48-3.65-1.48a7.29,7.29,0,0,0-7.41,7.3c0,7.23,7.86,10,12.37,10,8.61,0,13.22-4.56,13.22-10,.12-1.49.12-2.23.12-6.85,0-1.71-.57-2-2.11-2-3.48,0-5.53,1.31-5.53,3.82s2.91,3.3,4.1,3.3c0,0-.22,2.68-2.73,2.68-2.91,0-5.08-2.56-5.08-6.15,0-2.4,1.66-6.39,9.24-6.39h8.66c2.8,0,5.14-.74,5.88-4,1.76,0,2.28,1.82,2.28,2.62a4.12,4.12,0,0,1-4.34,4.05c-1.19,0-1.82-.06-3.36-.06-3,0-3.19,2.73-3.19,7.29C610.13,345.06,603.12,349.91,593,349.91Z" transform="translate(-126.43 -219.43)"/><path class="cls-1" d="M671.17,322.77a12.66,12.66,0,0,1-12.88,12.72c-3,0-6.1-1-6.1-3.42a2.36,2.36,0,0,1,2.34-2.11c0,.74.85,2.85,4.1,2.85,5.48,0,8.27-5,8.27-9.81s-2.4-10.37-10.55-10.37c-2.45,0-5.64.74-7,1.94v29.75c0,3,2.33,3.48,4,3.48H655v1.71H640.33V347.8h1.77a2.92,2.92,0,0,0,3.14-2.68V315.71c0-2-1.37-3.08-3.42-3.08h-1.49v-1.71h4.79c5.42-.06,7.64-.91,12.09-.91C667.81,310,671.17,316.28,671.17,322.77Z" transform="translate(-126.43 -219.43)"/><path class="cls-1" d="M707.43,347.8v1.71H695.11V347.8h1.37a1.62,1.62,0,0,0,1.71-1.54A3.43,3.43,0,0,0,698,345c-.74-2.11-2.45-7.07-2.9-8.27H679.49c-1.31,2.74-3.08,6.9-3.08,8.95s.57,3.37,1.43,3.42c0,.29-1,1.37-3.31,1.37-2.68,0-3-2.68-3-3.71,0-2.39,1.65-5.58,3.13-8.49,5.36-10.6,10.15-20.46,10.15-23.6,0-2.51-1.65-2.79-2.11-2.85,0-.57,1-1.71,3.14-1.71,3.59,0,5.07,3,6.21,6.21.8,2.28,10.2,28.16,10.2,28.16A4.68,4.68,0,0,0,706,347.8ZM694,333.49c-2-5.3-3.87-10.89-5.81-16.19-1,2.28-2.74,7.36-7.19,16.19Z" transform="translate(-126.43 -219.43)"/><path class="cls-1" d="M742.59,347.63V348c0,1.6-1.59,2.34-3.36,2.34-2.74,0-4.1-2.68-6.16-6.56-2.22-4.16-5.41-10.31-10.43-10.31-.91,0-2.79-.52-2.79-1.94a4,4,0,0,1,.62-2.06,6.72,6.72,0,0,0,3.31.92,8.66,8.66,0,0,0,8.89-8.5c0-4.39-2.28-9.23-10.09-9.23a16,16,0,0,0-7,1.59v30.1c0,2.11,1.25,3.48,3.19,3.48h2.11v1.71H706.57V347.8h1.65c2.16,0,3.25-1.2,3.25-3.48V315.14c0-1.6-1.26-2.57-3.25-2.57h-1.65v-1.65H712c4.44,0,6.61-.86,10.89-.86,9.86,0,14.25,5.13,14.25,11.29s-5.25,10.2-8.55,10.66c3.08.74,5.64,5.19,7.35,8.27C739.46,346.6,740.37,347.63,742.59,347.63Z" transform="translate(-126.43 -219.43)"/><path class="cls-1" d="M769.9,319c0-5.7-5.25-5.7-8.73-5.7-1.71,0-2.16,1.2-2.16,2.4v28.78a3.32,3.32,0,0,0,3.48,3.31h2.1v1.71H749.37V347.8h1.94a3.43,3.43,0,0,0,3.54-3.31V315.93c0-1.48-.35-2.67-2.28-2.67-7.47,0-8.5,3.42-9,4.73-.74,0-1.83-2-1.83-3.65a3.07,3.07,0,0,1,1.66-3.08c1.25-.63,3.47-.63,5.3-.63,2,0,4.16.17,8.21.17,1.19,0,10.31-.28,12-.28,2.62,0,3.19,1.59,3.19,2.79C772.12,314.91,771.89,319,769.9,319Z" transform="translate(-126.43 -219.43)"/><path class="cls-1" d="M778.9,315.93c0-1.48-.63-3.36-3.71-3.36h-1v-1.65H779c4.34,0,5.7,1.94,7.59,4.67l17.95,26.57V315.93c0-2-.85-3.36-2.62-3.36h-2v-1.65h12.72v1.65h-1.6a2.64,2.64,0,0,0-2.79,2.85v28.9c0,3,1.88,4.45,2.39,4.45-1,1.14-2.56,1.14-3.59,1.14a4.09,4.09,0,0,1-3.19-1.77c-1.48-1.94-21.21-30.55-21.21-30.55v26.56c0,1.43.63,3.65,3.42,3.65h1.77v1.71H774.4V347.8h1.42a3,3,0,0,0,3.08-3.25Z" transform="translate(-126.43 -219.43)"/><path class="cls-1" d="M847.19,316c0,2.11-1.48,4.45-3.37,4.45,0-5.13-1.82-7.36-8.26-7.36-3.71,0-8.84.35-8.84,2.8v12h9.75c2.85,0,3.31,1.31,3.31,2.17,0,1.65-2.06,3.3-3.65,3.3,0-1.54-1.09-2.56-3.65-2.56h-5.76v14.08c0,2.05,5.53,2.11,9.52,2.11,7.47,0,9.41-5.65,9.41-6.62a3.32,3.32,0,0,1,3.08,3.31c0,4.9-5.7,5.87-11.23,5.87H818v-2.05h1.88a2.58,2.58,0,0,0,2.74-2.57V315.25a2.46,2.46,0,0,0-2.74-2.68h-1.77v-1.65h8.1c2.79,0,10.89-.34,13.79-.34C845.93,310.58,847.13,312.06,847.19,316Z" transform="translate(-126.43 -219.43)"/><path class="cls-1" d="M888.91,347.63V348c0,1.6-1.6,2.34-3.36,2.34-2.74,0-4.11-2.68-6.16-6.56-2.22-4.16-5.42-10.31-10.43-10.31-.91,0-2.79-.52-2.79-1.94a4,4,0,0,1,.62-2.06,6.72,6.72,0,0,0,3.31.92,8.66,8.66,0,0,0,8.89-8.5c0-4.39-2.28-9.23-10.09-9.23a16,16,0,0,0-6.95,1.59v30.1c0,2.11,1.25,3.48,3.19,3.48h2.11v1.71H852.88V347.8h1.66c2.16,0,3.25-1.2,3.25-3.48V315.14c0-1.6-1.26-2.57-3.25-2.57h-1.66v-1.65h5.48c4.44,0,6.61-.86,10.88-.86,9.87,0,14.26,5.13,14.26,11.29s-5.25,10.2-8.56,10.66c3.08.74,5.65,5.19,7.36,8.27C885.78,346.6,886.69,347.63,888.91,347.63Z" transform="translate(-126.43 -219.43)"/><path class="cls-1" d="M894.09,319.81c0-4.39,4.22-9.69,12-9.69s11.69,3.76,11.69,7.64c0,3.53-2.23,4.45-3.76,4.45,0-7.07-3.2-9.47-7.93-9.47-4.39,0-7.87,3-7.87,6.84,0,9.86,20.87,8.33,20.87,20.7,0,5.24-5.07,10.14-13.74,10.14-8.84,0-12.71-4.67-12.71-7.86a3.92,3.92,0,0,1,3.08-4.11s.79,9.07,10.26,9.07c7.64,0,9-5,9-6.79s-.23-4.79-9.46-8.66C895.23,327.73,894.09,323.8,894.09,319.81Z" transform="translate(-126.43 -219.43)"/><path class="cls-2" d="M476.23,379v.63H471.7V379h.5a.59.59,0,0,0,.63-.57,1.35,1.35,0,0,0-.08-.46c-.28-.77-.91-2.6-1.08-3h-5.73a10.9,10.9,0,0,0-1.13,3.29c0,.76.21,1.24.52,1.26,0,.11-.35.51-1.21.51s-1.1-1-1.1-1.37a8.35,8.35,0,0,1,1.16-3.13c2-3.9,3.74-7.53,3.74-8.69,0-.92-.61-1-.78-1,0-.21.38-.63,1.15-.63,1.33,0,1.87,1.12,2.29,2.29.3.84,3.76,10.37,3.76,10.37a1.73,1.73,0,0,0,1.37,1.22Zm-5-5.27c-.74-1.95-1.43-4-2.15-6a62.83,62.83,0,0,1-2.64,6Z" transform="translate(-126.43 -219.43)"/><path class="cls-2" d="M495.05,368.38c0-2.1-1.93-2.1-3.22-2.1-.63,0-.79.44-.79.88v10.6a1.22,1.22,0,0,0,1.28,1.22h.77v.63h-5.6V379h.71a1.26,1.26,0,0,0,1.3-1.22V367.24c0-.54-.12-1-.84-1-2.75,0-3.12,1.26-3.29,1.74-.28,0-.67-.73-.67-1.34a1.14,1.14,0,0,1,.61-1.14,5.1,5.1,0,0,1,1.95-.23c.75,0,1.53.06,3,.06.44,0,3.8-.1,4.41-.1,1,0,1.18.59,1.18,1C495.87,366.87,495.78,368.38,495.05,368.38Z" transform="translate(-126.43 -219.43)"/><path class="cls-2" d="M516.05,368.38c0-2.1-1.93-2.1-3.21-2.1-.63,0-.8.44-.8.88v10.6a1.22,1.22,0,0,0,1.28,1.22h.78v.63h-5.61V379h.71a1.26,1.26,0,0,0,1.3-1.22V367.24c0-.54-.12-1-.84-1-2.75,0-3.12,1.26-3.29,1.74-.27,0-.67-.73-.67-1.34a1.14,1.14,0,0,1,.61-1.14,5.1,5.1,0,0,1,1.95-.23c.75,0,1.53.06,3,.06.44,0,3.8-.1,4.41-.1,1,0,1.18.59,1.18,1C516.87,366.87,516.78,368.38,516.05,368.38Z" transform="translate(-126.43 -219.43)"/><path class="cls-2" d="M526.72,372.56c0-4.29,2.56-7.46,6.93-7.46,4.66,0,7,3.34,7,7.46,0,4-2.52,7.41-7,7.41A7.14,7.14,0,0,1,526.72,372.56Zm7,6.36c3.28,0,5.23-2.82,5.23-6.36s-1.89-6.47-5.38-6.47-5.14,3.25-5.18,6.47S530.35,378.9,533.75,378.92Z" transform="translate(-126.43 -219.43)"/><path class="cls-2" d="M564.79,378.92V379c0,.59-.59.87-1.24.87-1,0-1.51-1-2.27-2.42s-2-3.8-3.84-3.8c-.34,0-1-.19-1-.71a1.43,1.43,0,0,1,.23-.76,2.49,2.49,0,0,0,1.22.34,3.18,3.18,0,0,0,3.27-3.13c0-1.62-.84-3.4-3.71-3.4a6,6,0,0,0-2.56.58V377.7A1.15,1.15,0,0,0,556,379h.78v.63h-5.29V379h.61c.79,0,1.19-.44,1.19-1.28V367c0-.59-.46-.94-1.19-.94h-.61v-.61h2c1.64,0,2.44-.32,4-.32,3.64,0,5.25,1.89,5.25,4.16a4.16,4.16,0,0,1-3.15,3.93c1.14.27,2.08,1.91,2.71,3C563.63,378.54,564,378.92,564.79,378.92Z" transform="translate(-126.43 -219.43)"/><path class="cls-2" d="M577,367.24c0-.54-.23-1.23-1.36-1.23h-.38v-.61h1.78c1.6,0,2.1.71,2.8,1.72l6.61,9.78v-9.66c0-.73-.31-1.23-1-1.23h-.73v-.61h4.68V366h-.59a1,1,0,0,0-1,1.05V377.7a1.62,1.62,0,0,0,.89,1.64,1.67,1.67,0,0,1-1.33.42,1.51,1.51,0,0,1-1.17-.65c-.55-.72-7.81-11.26-7.81-11.26v9.79a1.21,1.21,0,0,0,1.26,1.34h.65v.63h-5V379h.53a1.12,1.12,0,0,0,1.13-1.2Z" transform="translate(-126.43 -219.43)"/><path class="cls-2" d="M611.83,367.27c0,.77-.55,1.63-1.24,1.63,0-1.89-.67-2.71-3.05-2.71-1.36,0-3.25.13-3.25,1v4.41h3.59c1,0,1.22.49,1.22.8a1.46,1.46,0,0,1-1.35,1.22c0-.57-.39-.95-1.34-.95h-2.12v5.19c0,.76,2,.78,3.51.78a3.21,3.21,0,0,0,3.46-2.44,1.23,1.23,0,0,1,1.14,1.22c0,1.8-2.1,2.16-4.14,2.16h-7.18v-.75h.69a1,1,0,0,0,1-.95V367a.9.9,0,0,0-1-1h-.65v-.61h3c1,0,4-.13,5.08-.13C611.37,365.27,611.81,365.82,611.83,367.27Z" transform="translate(-126.43 -219.43)"/><path class="cls-2" d="M634.93,365.4V366h-.32a2.38,2.38,0,0,0-2,1.36c-1.6,2.52-3.26,5.38-3.59,6v4.43a1.22,1.22,0,0,0,1.34,1.15h.88v.63h-5.81V379h.75a1.21,1.21,0,0,0,1.3-1.15v-4.16c0-.67-2.33-4.47-3.06-5.65-.4-.65-1.32-2.06-2.21-2.06a1.34,1.34,0,0,0-.58.13s.5-1,1.34-1,1.3.15,2.2,1.56c1,1.66,1.77,2.92,3.24,5.54.61-1.09,2.56-4.51,2.75-4.93a1.18,1.18,0,0,0,.14-.55c0-.42-.33-.69-.94-.69H630v-.63Z" transform="translate(-126.43 -219.43)"/><path class="cls-2" d="M645.56,368.67c0-1.61,1.55-3.57,4.43-3.57s4.3,1.39,4.3,2.82-.82,1.63-1.39,1.63c0-2.6-1.17-3.48-2.91-3.48a2.71,2.71,0,0,0-2.9,2.52c0,3.63,7.68,3.06,7.68,7.62,0,1.93-1.87,3.74-5.06,3.74s-4.68-1.72-4.68-2.9a1.44,1.44,0,0,1,1.13-1.51,3.69,3.69,0,0,0,3.78,3.34c2.82,0,3.3-1.83,3.3-2.5s-.08-1.77-3.49-3.19C646,371.59,645.56,370.14,645.56,368.67Z" transform="translate(-126.43 -219.43)"/><path class="cls-2" d="M694.88,379v.63h-4.53V379h.5a.59.59,0,0,0,.63-.57,1.35,1.35,0,0,0-.08-.46c-.28-.77-.91-2.6-1.08-3h-5.73a10.9,10.9,0,0,0-1.13,3.29c0,.76.21,1.24.52,1.26,0,.11-.35.51-1.21.51s-1.1-1-1.1-1.37a8.35,8.35,0,0,1,1.16-3.13c2-3.9,3.74-7.53,3.74-8.69,0-.92-.61-1-.78-1,0-.21.38-.63,1.15-.63,1.33,0,1.87,1.12,2.29,2.29.3.84,3.76,10.37,3.76,10.37a1.73,1.73,0,0,0,1.37,1.22Zm-5-5.27c-.74-1.95-1.43-4-2.15-6a62.83,62.83,0,0,1-2.64,6Z" transform="translate(-126.43 -219.43)"/><path class="cls-2" d="M713.7,368.38c0-2.1-1.93-2.1-3.21-2.1-.63,0-.8.44-.8.88v10.6A1.22,1.22,0,0,0,711,379h.78v.63h-5.61V379h.71a1.26,1.26,0,0,0,1.3-1.22V367.24c0-.54-.12-1-.84-1-2.75,0-3.12,1.26-3.29,1.74-.27,0-.67-.73-.67-1.34a1.14,1.14,0,0,1,.61-1.14,5.1,5.1,0,0,1,1.95-.23c.75,0,1.53.06,3,.06.44,0,3.8-.1,4.41-.1,1,0,1.18.59,1.18,1C714.52,366.87,714.43,368.38,713.7,368.38Z" transform="translate(-126.43 -219.43)"/><path class="cls-2" d="M744.42,377.78c0,.61.27.91,2.63.91,1.26,0,3.06-.61,3.06-2a1.17,1.17,0,0,0-.08-.56,1.55,1.55,0,0,1,.56-.09,1.1,1.1,0,0,1,1.06,1.14c0,1.93-2,2.39-4,2.39h-6.4v-.75h.61a1,1,0,0,0,1.07-.95V367a1,1,0,0,0-1.09-1h-.55v-.61h5V366h-.84a1,1,0,0,0-1,.94Z" transform="translate(-126.43 -219.43)"/><path class="cls-2" d="M774.68,379v.63h-4.53V379h.5a.59.59,0,0,0,.63-.57,1.35,1.35,0,0,0-.08-.46c-.28-.77-.91-2.6-1.07-3h-5.74a10.9,10.9,0,0,0-1.13,3.29c0,.76.21,1.24.52,1.26,0,.11-.35.51-1.21.51s-1.09-1-1.09-1.37a8.31,8.31,0,0,1,1.15-3.13c2-3.9,3.74-7.53,3.74-8.69,0-.92-.61-1-.78-1,0-.21.38-.63,1.15-.63,1.33,0,1.87,1.12,2.29,2.29.3.84,3.76,10.37,3.76,10.37a1.73,1.73,0,0,0,1.37,1.22Zm-4.95-5.27c-.74-1.95-1.43-4-2.15-6a62.83,62.83,0,0,1-2.64,6Z" transform="translate(-126.43 -219.43)"/><path class="cls-2" d="M797.89,379.86c-.4,0-.91-.25-.91-.37a.89.89,0,0,0,.36-.74,12.73,12.73,0,0,0-.38-1.45c-.88-2.88-1.78-5.5-2.66-8.38-1.18,2.92-3.26,8-4.08,9.87a1.79,1.79,0,0,1-1.61,1.07c-.42,0-.78-.25-.78-.37a.89.89,0,0,0,.38-.8,5.2,5.2,0,0,0-.17-.84c-.9-3.28-1.89-6.68-2.79-10a2.09,2.09,0,0,0-2-1.89h-.48v-.61h5.37V366h-.42a1,1,0,0,0-1.07,1,1,1,0,0,0,.07.38c.31,1.43,2.07,8.13,2.68,10,1.54-3.38,3.38-8,3.82-9.41a2.63,2.63,0,0,0,.19-.88,1.19,1.19,0,0,0-.86-1.18,1.49,1.49,0,0,1,1.24-.54c.67,0,1,.33,1.2.9.57,1.34,3,9.87,3.5,11.19.74-1.74,2.52-7.81,3-9.62a2.86,2.86,0,0,0,.1-.67c0-.65-.31-1.19-1.49-1.19h-.63v-.61h5.42V366c-1,0-1.53.46-1.89,1.61l-.38,1.24c-.73,2.5-2.2,7.29-3.25,9.87A1.6,1.6,0,0,1,797.89,379.86Z" transform="translate(-126.43 -219.43)"/><path class="cls-2" d="M927.37,365.08H832.16a6.49,6.49,0,1,0,5.48,3h89.73A1.5,1.5,0,0,0,927.37,365.08Zm-95.21,9.41a2.91,2.91,0,1,1,2.91-2.91A2.91,2.91,0,0,1,832.16,374.49Z" transform="translate(-126.43 -219.43)"/><path class="cls-2" d="M432.87,365.08H337.66a1.5,1.5,0,0,0,0,3h89.73a6.5,6.5,0,1,0,5.48-3Zm0,9.41a2.91,2.91,0,1,1,2.9-2.91A2.91,2.91,0,0,1,432.87,374.49Z" transform="translate(-126.43 -219.43)"/><path class="cls-2" d="M234.25,266.38a5.11,5.11,0,0,1,.93.4,3.49,3.49,0,0,1,.9.61.77.77,0,0,1,.22.34.63.63,0,0,1-.2.69,1.49,1.49,0,0,1-.74.26,8,8,0,0,1-1.09,0h.08a1.58,1.58,0,0,0-.55.1c-.05,0,.06,0,.17-.19s0-.25.06-.21a3.17,3.17,0,0,0,.39.42,2.91,2.91,0,0,1,.35.38,1.81,1.81,0,0,1,.3.57,1.59,1.59,0,0,1-.26,1.53,2.39,2.39,0,0,1-1,.7,5.46,5.46,0,0,1-1.85.27l.22,0a2.58,2.58,0,0,0-.48.14l0,0a.6.6,0,0,0,.14-.33c0-.26,0,0,.09.07l.34.52a6.53,6.53,0,0,1,1.15,2.68,6.41,6.41,0,0,1-.24,2.87,8.79,8.79,0,0,1-1.31,2.39l-.09-.05a7.52,7.52,0,0,0,.89-5,6.19,6.19,0,0,0-1.15-2.31c-.23-.37-.59-.66-.65-1.19,0-.3.29-.45.48-.54a4.79,4.79,0,0,1,.64-.21h0a5.12,5.12,0,0,0,1.52-.2c.48-.13.92-.55.74-1s-.65-.75-.9-1.25a.6.6,0,0,1-.07-.44.49.49,0,0,1,.35-.28,2.44,2.44,0,0,1,.8-.07h0a5.29,5.29,0,0,0,1,.08.81.81,0,0,0,.44-.09c.1-.06,0-.22-.06-.34a6.66,6.66,0,0,0-1.53-1.2Z" transform="translate(-126.43 -219.43)"/><path class="cls-2" d="M175.69,219.45l-.31.05c-1.88.3-3.22,4.3-4.32,7.54a25.1,25.1,0,0,1-1.05,2.77l0-.13c-.86-4.2-2.17-6.83-3.9-7.82l-.28-.13a2.24,2.24,0,0,0-1-.35c-.87-.1-1.61.26-1.65.81s.62,1.09,1.49,1.19a1.68,1.68,0,0,0,1.51-.46c1,.79,2.23,2.65,3.12,7,.05.25.19.91.63,1h0c.55,0,.92-1,1.75-3.47.71-2.07,1.67-4.91,2.75-6.25a1.79,1.79,0,0,0,1.38.33c.87-.1,1.54-.63,1.5-1.19S176.55,219.35,175.69,219.45Z" transform="translate(-126.43 -219.43)"/><path class="cls-2" d="M198.74,234.19c.62-.93,1.26-1.85,1.79-2.81a6.64,6.64,0,0,0,.67-1.44.76.76,0,0,0,0-.28c0-.06,0,0,0,0a1.37,1.37,0,0,0-.57.14,18.48,18.48,0,0,0-2.84,1.56c-.94.58-1.84,1.21-2.75,1.85a18.75,18.75,0,0,1-2.93,1.79,3.37,3.37,0,0,1-1.87.27,3.68,3.68,0,0,1-1.68-.78l-.65-.53-.3-.21-.11-.05h.06a.24.24,0,0,0,.13-.13c0-.09,0,.1.05.19a3.3,3.3,0,0,0,.13.37c.11.24.23.49.36.73.48,1,1.06,1.95,1.6,2.93a31.41,31.41,0,0,1-2-2.68c-.15-.24-.3-.48-.44-.74s-.13-.26-.19-.4a1,1,0,0,1-.08-.62.44.44,0,0,1,.28-.27.47.47,0,0,1,.26,0,1.32,1.32,0,0,1,.28.09l.41.23.69.48a3.45,3.45,0,0,0,1.35.55,2.45,2.45,0,0,0,1.38-.27,19.26,19.26,0,0,0,2.73-1.75c.91-.64,1.85-1.26,2.82-1.85a16,16,0,0,1,3.07-1.52,1.9,1.9,0,0,1,1.06-.07.68.68,0,0,1,.48.63,1.45,1.45,0,0,1-.09.54,7,7,0,0,1-.87,1.52A22.42,22.42,0,0,1,198.74,234.19Z" transform="translate(-126.43 -219.43)"/><path class="cls-2" d="M209.53,392.08c-4.15,0-7.35-2.81-7.35-6.28v-69a8.09,8.09,0,0,1,.45-2.75,28.45,28.45,0,0,0,2.78-2.32,8.07,8.07,0,0,0,1.33-1.62,10.74,10.74,0,0,0,1.55-4.54,18.78,18.78,0,0,0-.46-6.52,10.43,10.43,0,0,1-2.67,3.81c-2.15,2-5.72,2.56-9.54,2.43l-2-.16-1.2-.11v78.88c0,7-5.48,8.16-9.36,8.16h-3.74v4h34.35v-4Z" transform="translate(-126.43 -219.43)"/><rect id="_2" data-name="2" class="cls-2" x="242.41" y="237.81" width="5.01" height="6.2" rx="0.41" transform="translate(-32.08 -287.31) rotate(19.48)"/><rect id="_1" data-name="1" class="cls-2" x="238.13" y="245.65" width="5.01" height="6.5" rx="0.41" transform="translate(-29.66 -285.43) rotate(19.48)"/><g id="_" data-name="&amp;"><path class="cls-2" d="M276.49,292.25c-7.86,0-15.05-4.19-15.05-11.38a8.52,8.52,0,0,1,7.65-8.67c-4.28-1.93-5.66-4.23-5.66-7.44s2.09-7.75,9.89-7.75c6.79,0,9.28,2.95,9.28,6.32a3.31,3.31,0,0,1-3.06,3.26c0-5.71-3.41-7.14-6.22-7.14-3.11,0-6,2.15-6,5.31,0,6.12,8.82,5.2,8.82,8.72a3.35,3.35,0,0,1-.87,2.24c-.35-.46-1.12-1.32-3.26-1.32a6.53,6.53,0,0,0-6.63,6.52c0,6.48,7,8.93,11.07,8.93,7.7,0,11.83-4.08,11.83-8.93.1-1.32.1-2,.1-6.12,0-1.52-.51-1.78-1.89-1.78-3.11,0-4.95,1.17-4.95,3.42s2.61,2.95,3.68,2.95c0,0-.21,2.4-2.45,2.4-2.6,0-4.54-2.29-4.54-5.51,0-2.14,1.48-5.71,8.26-5.71h7.75c2.5,0,4.59-.66,5.26-3.62,1.58,0,2,1.63,2,2.35a3.67,3.67,0,0,1-3.87,3.62c-1.07,0-1.63-.05-3-.05-2.7,0-2.85,2.44-2.85,6.52C291.84,287.91,285.56,292.25,276.49,292.25Z" transform="translate(-126.43 -219.43)"/></g><g id="p"><path class="cls-2" d="M288.08,344.44A24.44,24.44,0,0,1,263.2,369c-5.73,0-11.79-1.87-11.79-6.61,0-2,2-4,4.52-4.07,0,1.43,1.65,5.5,7.93,5.5,10.57,0,16-9.58,16-18.94,0-9.14-4.62-20-20.37-20-4.73,0-10.9,1.43-13.43,3.75v57.48c0,5.72,4.51,6.72,7.71,6.72h3.08v3.3h-28.3v-3.3h3.41c3.42,0,6.06-2.32,6.06-5.18V330.79c0-3.85-2.64-6-6.61-6h-2.86v-3.3h9.25c10.46-.11,14.76-1.76,23.34-1.76C281.59,319.78,288.08,331.89,288.08,344.44Z" transform="translate(-126.43 -219.43)"/></g><path id="ูุณ" class="cls-2" d="M222.82,229.37v3.36h2.06c3.08,0,6.3,1.3,5.25,3.68-2.29,5.17-5.3,11.57-6.45,14.19-.34.77-.76,1.68-1.47,1.68-1.21,0-5.19-2-5.19-2a.63.63,0,0,0-.84.32l-1.57,3.35a.64.64,0,0,0,.3.85l4.33,2s1.23.46.47,2c-.44.92-.75,1.56-1.75,1.27-.41-.12-4.68-2-4.68-2a.64.64,0,0,0-.84.32l-1.56,3.35a.64.64,0,0,0,.29.85l4.37,2.05a1.57,1.57,0,0,1,.4,2,2,2,0,0,1-1.73,1.23c-.39,0-4.7-2-4.7-2a.64.64,0,0,0-.84.32l-1.56,3.35a.64.64,0,0,0,.29.85l4,1.85c.71.38,1.25,1.31,1,1.73-2.24,4.65-7.7,16.59-15.55,16.59-3.24,0-12.75-11.11-14.79-13.54-3.85-4.61-29.69-37.54-30.66-38.84-2.12-2.82-4.59-5.92-6.39-7-2.45-1.49-4.9-1.76-8.19-1.76-6.5,0-10.4,7.64-10.4,7.64a10.52,10.52,0,0,1,4.55-1c3.39,0,7,1.9,9.87,6,2.41,3.44,31.33,42.76,41.36,51.35,4.35,3.73,9.18,7.43,14.65,7.43,17.18-.8,32-34.26,41.78-61.51,2.2-4.88,4.18-6.62,8.12-6.63h1.62v-3.36Z" transform="translate(-126.43 -219.43)"/></svg>